<?xml version="1.0" encoding="UTF-8" standalone="no"?>
<!-- Created with Inkscape (http://www.inkscape.org/) -->

<svg
   xmlns:dc="http://purl.org/dc/elements/1.1/"
   xmlns:cc="http://creativecommons.org/ns#"
   xmlns:rdf="http://www.w3.org/1999/02/22-rdf-syntax-ns#"
   xmlns:svg="http://www.w3.org/2000/svg"
   xmlns="http://www.w3.org/2000/svg"
   xmlns:sodipodi="http://sodipodi.sourceforge.net/DTD/sodipodi-0.dtd"
   xmlns:inkscape="http://www.inkscape.org/namespaces/inkscape"
   id="svg2985"
   version="1.1"
   inkscape:version="0.48.1 "
   width="500"
   height="196.7171"
   xml:space="preserve"
   sodipodi:docname="broderbund_software.pdf"><metadata
     id="metadata2991"><rdf:RDF><cc:Work
         rdf:about=""><dc:format>image/svg+xml</dc:format><dc:type
           rdf:resource="http://purl.org/dc/dcmitype/StillImage" /><dc:title></dc:title></cc:Work></rdf:RDF></metadata><defs
     id="defs2989" /><sodipodi:namedview
     pagecolor="#ffffff"
     bordercolor="#666666"
     borderopacity="1"
     objecttolerance="10"
     gridtolerance="10"
     guidetolerance="10"
     inkscape:pageopacity="0"
     inkscape:pageshadow="2"
     inkscape:window-width="1920"
     inkscape:window-height="1028"
     id="namedview2987"
     showgrid="false"
     fit-margin-top="0"
     fit-margin-left="0"
     fit-margin-right="0"
     fit-margin-bottom="0"
     inkscape:zoom="1.5202952"
     inkscape:cx="58.516669"
     inkscape:cy="194.56623"
     inkscape:window-x="0"
     inkscape:window-y="0"
     inkscape:window-maximized="1"
     inkscape:current-layer="g2993" /><g
     id="g2993"
     inkscape:groupmode="layer"
     inkscape:label="broderbund_software"
     transform="matrix(1.25,0,0,-1.25,0,196.7171)"><g
       id="g2995"
       transform="scale(1.4170277,1.4170277)"><path
         d="m 273.621,34.125 1.082,0 0,3.1016 1.246,0 1.887,-3.1016 1.215,0 -2.035,3.1484 c 1.05,0.1329 1.855,0.6914 1.855,1.9688 0,1.4101 -0.836,2.0351 -2.527,2.0351 l -2.723,0 0,-7.1523 z m 1.082,6.2344 1.477,0 c 0.754,0 1.558,-0.1641 1.558,-1.0508 0,-1.1016 -0.82,-1.1641 -1.738,-1.1641 l -1.297,0 0,2.2149"
         style="fill:#000000;fill-opacity:1;fill-rule:nonzero;stroke:none"
         id="path2997"
         inkscape:connector-curvature="0" /><path
         d="m 136.141,31.0078 0,-30.398425 9.73,0 0.004,30.398425 c 0,1.8594 1.508,3.3633 3.367,3.3633 l 3.809,0 0,9.7461 -3.809,-0.0078 c -7.234,0 -13.101,-5.8672 -13.101,-13.1016"
         style="fill:#000000;fill-opacity:1;fill-rule:nonzero;stroke:none"
         id="path2999"
         inkscape:connector-curvature="0" /><path
         d="m 200.645,13.207 c 0,-1.9726 -1.602,-3.57419 -3.579,-3.57419 -1.972,0 -3.57,1.60159 -3.57,3.57419 l 0,29.5899 -9.683,0 0.05,-29.5899 C 183.863,5.91406 189.777,0 197.066,0 c 7.297,0 13.211,5.91406 13.211,13.207 l 0.047,29.5899 -9.679,0 0,-29.5899"
         style="fill:#000000;fill-opacity:1;fill-rule:nonzero;stroke:none"
         id="path3001"
         inkscape:connector-curvature="0" /><path
         d="m 225.34,43.4063 c -7.293,0 -13.207,-5.9141 -13.207,-13.2071 l -0.051,-29.589825 9.684,0 0,29.589825 c 0,1.9766 1.601,3.5742 3.574,3.5742 1.973,0 3.574,-1.5976 3.574,-3.5742 l 0,-29.589825 9.684,0 -0.051,29.589825 c 0,7.293 -5.91,13.2071 -13.207,13.2071"
         style="fill:#000000;fill-opacity:1;fill-rule:nonzero;stroke:none"
         id="path3003"
         inkscape:connector-curvature="0" /><path
         d="m 32.4297,31.0078 0,-30.398425 9.7305,0 0.0039,30.398425 c 0,1.8594 1.5078,3.3633 3.3672,3.3633 l 3.8085,0 0,9.7461 -3.8085,-0.0078 c -7.2344,0 -13.1016,-5.8672 -13.1016,-13.1016"
         style="fill:#000000;fill-opacity:1;fill-rule:nonzero;stroke:none"
         id="path3005"
         inkscape:connector-curvature="0" /><path
         d="m 72.1758,41.1172 -4.9688,-15.457 0,-12.086 c 0,-1.8594 -1.5078,-3.3672 -3.3672,-3.3672 -0.5976,0 -1.164,0.1563 -1.6523,0.4336 L 58.9727,1.40234 c 1.5078,-0.601559 3.1484,-0.93359 4.8671,-0.93359 7.2383,0 13.1055,5.86719 13.1055,13.10545 l 0,17.4336 c 0,4.0664 -1.8594,7.7031 -4.7695,10.1094"
         style="fill:#000000;fill-opacity:1;fill-rule:nonzero;stroke:none"
         id="path3007"
         inkscape:connector-curvature="0" /><path
         d="m 60.4766,31.0078 c 0,1.8594 1.5078,3.3633 3.3632,3.3633 0.8399,0 1.6055,-0.3047 2.1915,-0.8086 l 2.9101,9.5156 c -1.5664,0.6641 -3.2891,1.0313 -5.1016,1.0313 -7.2343,0 -13.1015,-5.8672 -13.1015,-13.1016 l 0,-17.4336 c 0,-4.19529 1.9726,-7.93357 5.043,-10.33201 l 4.6953,13.77341 0,13.9922"
         style="fill:#000000;fill-opacity:1;fill-rule:nonzero;stroke:none"
         id="path3009"
         inkscape:connector-curvature="0" /><path
         d="m 109.031,75.0234 10.11,-22.2656 23.582,0 10.105,22.2656 13.77,0 11.316,25.0116 -4.723,4.727 -15.453,-5.8597 0,4.1017 3.953,0 0,4.394 -3.953,0 0,3.661 -4.394,0 0,-3.661 -3.957,0 0,-4.394 3.957,0 0,-3.9571 -15.676,5.8591 -4.613,-4.613 9.375,-20.8008 -9.301,-3.5156 0,3.4414 3.953,0 0,4.3945 -3.953,0 0,3.6641 -4.395,0 0,-3.6641 -3.957,0 0,-4.3945 3.957,0 0,-3.4414 -9.3,3.5156 9.375,20.8008 -4.618,4.613 -15.671,-5.8591 0,3.9571 3.953,0 0,4.394 -3.953,0 0,3.661 -4.395,0 0,-3.661 -3.957,0 0,-4.394 3.957,0 0,-4.1017 -15.4531,5.8597 -4.7266,-4.727 11.3164,-25.0116 13.7693,0 z m -2.785,18.3868 17.652,6.7348 -9.007,-19.9184 2.125,-4.4688 11.207,-4.25 5.418,0 11.207,4.25 2.125,4.4688 -9.012,19.9184 17.652,-6.7348 17.434,6.5898 -9.305,-20.582 -13.769,0 -9.813,-21.6797 -18.457,0 -9.816,21.6797 -13.7698,0 L 88.8164,100 106.246,93.4102"
         style="fill:#000000;fill-opacity:1;fill-rule:nonzero;stroke:none"
         id="path3011"
         inkscape:connector-curvature="0" /><path
         d="m 167.992,44.1094 c -1.176,0 -2.32,-0.1563 -3.406,-0.4492 l 0,14.3711 -9.633,0 -0.062,-44.4571 c 0,-7.23826 5.867,-13.10545 13.101,-13.10545 7.235,0 13.102,5.86719 13.102,13.10545 l 0,17.4336 c 0,7.2344 -5.867,13.1016 -13.102,13.1016 z m 0,-33.9024 c -1.859,0 -3.367,1.5078 -3.367,3.3672 l 0,17.4336 c 0,1.8594 1.508,3.3633 3.367,3.3633 1.86,0 3.367,-1.5039 3.367,-3.3633 l 0,-17.4336 c 0,-1.8594 -1.507,-3.3672 -3.367,-3.3672"
         style="fill:#000000;fill-opacity:1;fill-rule:nonzero;stroke:none"
         id="path3013"
         inkscape:connector-curvature="0" /><path
         d="m 95.6641,58.0313 0,-14.3711 c -1.086,0.2929 -2.2266,0.4492 -3.4063,0.4492 -7.2344,0 -13.1015,-5.8672 -13.1015,-13.1016 l 0,-17.4336 c 0,-7.23826 5.8671,-13.10545 13.1015,-13.10545 7.2383,0 13.1052,5.86719 13.1052,13.10545 l -0.066,44.4571 -9.6329,0 z M 95.625,13.5742 c 0,-1.8594 -1.5078,-3.3672 -3.3672,-3.3672 -1.8555,0 -3.3633,1.5078 -3.3633,3.3672 l 0,17.4336 c 0,1.8594 1.5078,3.3633 3.3633,3.3633 1.8594,0 3.3672,-1.5039 3.3672,-3.3633 l 0,-17.4336"
         style="fill:#000000;fill-opacity:1;fill-rule:nonzero;stroke:none"
         id="path3015"
         inkscape:connector-curvature="0" /><path
         d="m 257.238,58.0313 0,-14.3711 c -1.086,0.2929 -2.23,0.4492 -3.406,0.4492 -7.234,0 -13.102,-5.8672 -13.102,-13.1016 l 0,-17.4336 c 0,-7.23826 5.868,-13.10545 13.102,-13.10545 7.234,0 13.102,5.86719 13.102,13.10545 l -0.067,44.4571 -9.629,0 z m -0.039,-44.4571 c 0,-1.8594 -1.508,-3.3672 -3.367,-3.3672 -1.859,0 -3.367,1.5078 -3.367,3.3672 l 0,17.4336 c 0,1.8594 1.508,3.3633 3.367,3.3633 1.859,0 3.367,-1.5039 3.367,-3.3633 l 0,-17.4336"
         style="fill:#000000;fill-opacity:1;fill-rule:nonzero;stroke:none"
         id="path3017"
         inkscape:connector-curvature="0" /><path
         d="m 121.262,18.7813 c 7.238,0 13.105,4.914 13.105,12.1523 0,7.2344 -5.867,13.1016 -13.105,13.1016 -7.235,0 -13.102,-5.8672 -13.102,-13.1016 l 0,-17.3594 c 0,-7.23826 5.867,-13.10545 13.102,-13.10545 7.238,0 13.105,5.86719 13.105,13.10545 l -9.738,0 c 0,-1.8594 -1.508,-3.3672 -3.367,-3.3672 -1.856,0 -3.364,1.5078 -3.364,3.3672 l 0,5.2071 3.364,0 z m -3.364,12.5898 c 0,1.8594 1.508,3.3672 3.364,3.3672 1.859,0 3.367,-1.5078 3.367,-3.3672 0,-1.8594 -1.508,-2.9258 -3.367,-2.9258 l -3.364,-0.0039 0,2.9297"
         style="fill:#000000;fill-opacity:1;fill-rule:nonzero;stroke:none"
         id="path3019"
         inkscape:connector-curvature="0" /><path
         d="m 29.832,43.2383 c 0,8.2344 -6.6757,14.914 -14.9179,14.914 C 6.67969,58.1523 0,51.4727 0,43.2383 L 0,0.609375 9.63281,10.2773 l 0,32.961 c 0,2.918 2.36329,5.2812 5.28129,5.2812 2.9179,0 5.2851,-2.3632 5.2851,-5.2812 0,-2.918 -2.3672,-5.1367 -5.2851,-5.1367 l -5.28129,0.0078 0.00782,-9.668 5.56637,0 c 3.2227,0 5.5664,-3.6601 5.5664,-9.2266 0,-5.5664 -1.9023,-8.9375 -5.5664,-8.9375 l -5.56637,0 L 0,0.609375 l 17.2578,0 c 6.3008,0 13.1836,7.324215 13.1836,14.355425 l 0,6.1524 c 0,4.6875 -0.9297,8.6914 -4.2734,12.3281 2.2812,2.6211 3.664,6.043 3.664,9.793"
         style="fill:#000000;fill-opacity:1;fill-rule:nonzero;stroke:none"
         id="path3021"
         inkscape:connector-curvature="0" /><path
         d="m 276.016,43.9023 0,-1.0312 c 2.804,0 5.019,-2.2188 5.019,-5.1523 0,-2.9883 -2.215,-5.1875 -5.019,-5.1875 -2.84,0 -5.055,2.1992 -5.055,5.1875 0,2.9335 2.152,5.1523 4.988,5.1523 l 0.067,1.0312 c -3.414,0 -6.301,-2.625 -6.301,-6.1835 0,-3.5938 2.887,-6.2188 6.301,-6.2188 3.379,0 6.265,2.625 6.265,6.2188 0,3.5585 -2.886,6.1835 -6.265,6.1835"
         style="fill:#000000;fill-opacity:1;fill-rule:nonzero;stroke:none"
         id="path3023"
         inkscape:connector-curvature="0" /></g></g></svg>